# xmcd
#
# Track frame offsets:
#	150
#	15048
#	29020
#	43727
#	60229
#	74266
#	90431
#	113446
#	126781
#	141789
#	159716
#	174131
#	194175
#	211855
#	228090
#	244063
#	259059
#	278097
#	293998
#	310953
#	328703
#
# Disc length: 4603 seconds
#
# Revision: 2
# Processed by: cddbd v1.5.2PL0 Copyright (c) Steve Scherf et al.
# Submitted via: EZCDAudioConverter 2.1.5.1
#
DISCID=2111f915
DTITLE=Various Artist -  Intiaanikesä Vol4 cd3
DYEAR=2012
DGENRE=Pop
TTITLE0=Lucenzo feat Don Omar - Danza Kuduro
TTITLE1=PMMP - Rusketusraidat
TTITLE2=Aste - Normipäivä
TTITLE3=Liviu Hodor Feat. Mona - Sweet Love
TTITLE4=Spaceballs - Umbrella
TTITLE5=Leila K - Electric
TTITLE6=Bomfunk MC's - Freestyler
TTITLE7=Santana Feat. Product G and B - Maria Maria
TTITLE8=Kai Hyttinen - Dirlandaa
TTITLE9=Haloo Helsinki! - Maailman toisella puolen
TTITLE10=Pink - Get The Party Started
TTITLE11=Billy Idol - Rebel Yell
TTITLE12=Roxette - The Look
TTITLE13=XL5 - Kaunis peto
TTITLE14=Enigma - Return to Innocence
TTITLE15=Dr Bombay - Calcutta
TTITLE16=Aikakone - Odota
TTITLE17=Ilpo Kaikkonen - Kleinbus
TTITLE18=David Lee Roth - Just A Gigolo/Ain't Got Nobody
TTITLE19=Shaggy feat. Rayvon - In the Summertime
TTITLE20=Kesäpoika - Inkkarikesä
EXTD=
EXTT0=
EXTT1=
EXTT2=
EXTT3=
EXTT4=
EXTT5=
EXTT6=
EXTT7=
EXTT8=
EXTT9=
EXTT10=
EXTT11=
EXTT12=
EXTT13=
EXTT14=
EXTT15=
EXTT16=
EXTT17=
EXTT18=
EXTT19=
EXTT20=
PLAYORDER=
